# xmcd
# 
# Track frame offsets:
#     150
#     18670
#     37495
#     50472
#     63627
#     77360
#     96345
#     107570
#     122042
#     136535
# 
# Disc length: 1997
# 
# Revision: 3
# Processed by: cddbd v1.5.2PL0 Copyright (c) Steve Scherf et al.
# Submitted via: fre:ac v1.1beta1pre3
# 
DISCID=8407cb0a
DTITLE=Don Williams - The Best Of Don Williams Volume III
DYEAR=1984
DGENRE=Country
TTITLE0=I Believe In You
TTITLE1=Lord, I Hope This Day Is Good
TTITLE2=Lay Down Beside Me
TTITLE3=Mistakes
TTITLE4=Miracles
TTITLE5=Good Ole Boys Like Me
TTITLE6=It Must Be Love
TTITLE7=Listen To The Radio
TTITLE8=If Hollywood Don't Need You
TTITLE9=Love Me Over Again
EXTD=
EXTT0=
EXTT1=
EXTT2=
EXTT3=
EXTT4=
EXTT5=
EXTT6=
EXTT7=
EXTT8=
EXTT9=
PLAYORDER=
